<?xml version="1.0" encoding="utf-8"?>
<!-- Generator: Adobe Illustrator 19.0.0, SVG Export Plug-In . SVG Version: 6.00 Build 0)  -->
<svg version="1.1" id="Calque_1" xmlns="http://www.w3.org/2000/svg" xmlns:xlink="http://www.w3.org/1999/xlink" x="0px" y="0px"
	 viewBox="0 0 56.7 56.7" style="enable-background:new 0 0 56.7 56.7;" xml:space="preserve">
<style type="text/css">
	.st0{fill:url(#XMLID_2_);}
	.st1{fill:#FFFFFF;}
	.st2{fill:url(#XMLID_4_);}
</style>
<g id="XMLID_30_">
	<linearGradient id="XMLID_2_" gradientUnits="userSpaceOnUse" x1="1.1667" y1="28.3958" x2="55.625" y2="28.3958">
		<stop  offset="0" style="stop-color:#C75DFF"/>
		<stop  offset="1" style="stop-color:#43FE9F"/>
	</linearGradient>
	<path id="XMLID_33_" class="st0" d="M28.4,1.2c-15,0-27.2,12.2-27.2,27.2s12.2,27.2,27.2,27.2s27.2-12.2,27.2-27.2
		S43.4,1.2,28.4,1.2z M28.4,53.1C14.8,53.1,3.7,42,3.7,28.4S14.8,3.7,28.4,3.7s24.7,11.1,24.7,24.7S42,53.1,28.4,53.1z"/>
</g>
<g id="XMLID_3_">
	<path id="XMLID_118_" class="st1" d="M39.3,40.3c-0.5,0-0.8-0.4-0.8-0.8V28L28.4,38.1L18.3,28v11.5c0,0.5-0.4,0.8-0.8,0.8
		c-0.5,0-0.8-0.4-0.8-0.8V24.1l11.7,11.7l11.7-11.7v15.4C40.1,39.9,39.8,40.3,39.3,40.3z"/>
	<linearGradient id="XMLID_4_" gradientUnits="userSpaceOnUse" x1="16.6596" y1="27.2918" x2="40.1321" y2="27.2918">
		<stop  offset="0" style="stop-color:#C75DFF"/>
		<stop  offset="1" style="stop-color:#43FE9F"/>
	</linearGradient>
	<path id="XMLID_117_" class="st2" d="M28.4,33.7L16.9,22.2c-0.3-0.3-0.3-0.8,0-1.2s0.8-0.3,1.2,0l10.3,10.3l10.3-10.3
		c0.3-0.3,0.8-0.3,1.2,0s0.3,0.8,0,1.2L28.4,33.7z"/>
	<path id="XMLID_291_" class="st1" d="M28.4,29.4L16.9,17.9c-0.3-0.3-0.3-0.8,0-1.2s0.8-0.3,1.2,0l10.3,10.3l10.3-10.3
		c0.3-0.3,0.8-0.3,1.2,0s0.3,0.8,0,1.2L28.4,29.4z"/>
</g>
</svg>
